<?xml version="1.0" encoding="utf-8"?>
<!-- Generator: Adobe Illustrator 23.0.6, SVG Export Plug-In . SVG Version: 6.00 Build 0)  -->
<svg version="1.1" id="Layer_1" xmlns="http://www.w3.org/2000/svg" xmlns:xlink="http://www.w3.org/1999/xlink" x="0px" y="0px"
	 viewBox="0 0 419 130" style="enable-background:new 0 0 419 130;" xml:space="preserve">
<style type="text/css">
	.st0{fill:#EA6D07;}
	.st1{font-family:'BigBang!';}
	.st2{font-size:70.4465px;}
</style>
<path class="st0" d="M53.2,116.1h29.3h9.2c14.6,0,26.4-11.8,26.4-26.4v-6.6V39V12.5H91.7l0.2,26.2v13v21.7v3.2c0,7.2-5.8,13-13,13
	h-4.5H53.2V116.1z M53.2,89.8v26.2h30.3 M53.2,89.8v26.2h29.3 M40.9,89.8v-13V57.6v-5.8c0-7.2,5.8-13,13-13h1.4h23.9V12.5H43.9h-2.9
	c-14.6,0-26.4,11.8-26.4,26.4v11.7v38.9v26.4h26.4L40.9,89.8z"/>
<text transform="matrix(1 0 0 1 141.5386 77.2275)" class="st1 st2">rick janusz</text>
</svg>
